<?xml version="1.0" standalone="no"?>
<!DOCTYPE svg PUBLIC "-//W3C//DTD SVG 20010904//EN"
 "http://www.w3.org/TR/2001/REC-SVG-20010904/DTD/svg10.dtd">
<svg version="1.0" xmlns="http://www.w3.org/2000/svg"
 width="777.000000pt" height="480.000000pt" viewBox="0 0 777.000000 480.000000"
 preserveAspectRatio="xMidYMid meet">
<metadata>
Created by potrace 1.15, written by Peter Selinger 2001-2017
</metadata>
<g transform="translate(0.000000,480.000000) scale(0.100000,-0.100000)"
fill="#000000" stroke="none">
<path d="M810 3525 l0 -365 245 0 245 0 0 70 0 70 -150 0 -150 0 0 295 0 295
-95 0 -95 0 0 -365z"/>
<path d="M1360 3825 l0 -65 50 0 50 0 0 -235 0 -235 -50 0 -50 0 0 -65 0 -65
195 0 195 0 0 65 0 65 -50 0 -50 0 0 235 0 235 50 0 50 0 0 65 0 65 -195 0
-195 0 0 -65z"/>
<path d="M1880 3825 l0 -65 80 0 c44 0 80 -3 81 -7 7 -69 7 -113 2 -247 -5
-148 -7 -161 -28 -182 -39 -39 -111 -42 -197 -9 -16 6 -18 -1 -18 -73 l0 -80
66 -8 c168 -17 282 18 336 104 22 36 23 44 26 335 l3 297 -175 0 -176 0 0 -65z"/>
<path d="M2416 3537 c-66 -193 -121 -358 -124 -364 -3 -10 19 -13 90 -13 l94
0 24 75 24 75 111 0 112 0 22 -75 23 -75 94 0 c52 0 94 3 94 8 0 7 -221 672
-235 705 -6 15 -21 17 -109 17 l-101 0 -119 -353z m254 22 c17 -55 29 -104 25
-107 -6 -7 -115 -5 -122 2 -5 5 56 206 62 206 2 0 18 -45 35 -101z"/>
<path d="M2980 3820 l0 -70 105 0 105 0 0 -295 0 -295 95 0 95 0 0 295 0 295
105 0 105 0 0 70 0 70 -305 0 -305 0 0 -70z"/>
<path d="M3789 3763 c-23 -71 -77 -231 -120 -357 -44 -126 -79 -232 -79 -237
0 -5 42 -9 93 -9 l93 0 22 75 22 75 113 0 112 0 23 -75 22 -75 95 0 c52 0 95
4 95 9 0 4 -17 57 -38 117 -22 60 -76 220 -121 357 l-83 247 -103 0 -103 0
-43 -127z m210 -305 c1 -5 -30 -8 -68 -8 l-69 0 29 93 c16 50 32 99 35 107 4
9 20 -25 40 -85 18 -55 33 -103 33 -107z"/>
</g>
</svg>
